<?xml version="1.0" encoding="UTF-8"?>
<svg id="Layer_1" xmlns="http://www.w3.org/2000/svg" version="1.1" viewBox="0 0 1000 1000">
  <!-- Generator: Adobe Illustrator 30.3.0, SVG Export Plug-In . SVG Version: 2.1.3 Build 182)  -->
  <defs>
    <style>
      .st0 {
        fill: none;
      }

      .st1 {
        font-family: ArialMT, Arial;
        font-size: 12px;
        isolation: isolate;
      }
    </style>
  </defs>
  <path class="st0" d="M80,920c105.7-50.5,86.7-563.2,142.1-681.8,58.8-125.8,172-158.2,697.9-158.2"/>
  <path class="st0" d="M80,920c105.7-50.5,86.7-563.2,142.1-681.8,58.8-125.8,172-158.2,697.9-158.2"/>
  <circle cx="472.2" cy="98.3" r="16"/>
  <line class="st0" x1="80" y1="920" x2="185.7" y2="869.5"/>
  <line class="st0" x1="222.1" y1="238.2" x2="166.7" y2="356.8"/>
  <line class="st0" x1="222.1" y1="238.2" x2="281" y2="112.4"/>
  <line class="st0" x1="920" y1="80" x2="394.2" y2="80"/>
  <rect x="72" y="912" width="16" height="16"/>
  <rect x="912" y="72" width="16" height="16"/>
  <circle cx="185.7" cy="869.5" r="13"/>
  <circle cx="166.7" cy="356.8" r="13"/>
  <circle cx="281" cy="112.4" r="13"/>
  <circle cx="394.2" cy="80" r="13"/>
  <circle cx="222.1" cy="238.2" r="10"/>
  <text class="st1" transform="translate(80 966)"><tspan x="0" y="0">0</tspan></text>
</svg>